<svg width="1280" height="320" viewBox="0 0 1280 320" xmlns="http://www.w3.org/2000/svg">
  <defs>
    <linearGradient id="bg" x1="0%" y1="0%" x2="100%" y2="100%">
      <stop offset="0%" style="stop-color:#050c1a;stop-opacity:1" />
      <stop offset="100%" style="stop-color:#0a1628;stop-opacity:1" />
    </linearGradient>
    <linearGradient id="lineGrad" x1="0%" y1="0%" x2="100%" y2="0%">
      <stop offset="0%" style="stop-color:#00ffe0;stop-opacity:0" />
      <stop offset="30%" style="stop-color:#00ffe0;stop-opacity:1" />
      <stop offset="70%" style="stop-color:#00ffe0;stop-opacity:1" />
      <stop offset="100%" style="stop-color:#00ffe0;stop-opacity:0" />
    </linearGradient>
    <linearGradient id="accentLine" x1="0%" y1="0%" x2="100%" y2="0%">
      <stop offset="0%" style="stop-color:#ff4c4c;stop-opacity:0" />
      <stop offset="40%" style="stop-color:#ff4c4c;stop-opacity:0.6" />
      <stop offset="100%" style="stop-color:#ff4c4c;stop-opacity:0" />
    </linearGradient>
    <filter id="glow">
      <feGaussianBlur stdDeviation="3" result="blur"/>
      <feMerge><feMergeNode in="blur"/><feMergeNode in="SourceGraphic"/></feMerge>
    </filter>
    <filter id="subtleGlow">
      <feGaussianBlur stdDeviation="1.5" result="blur"/>
      <feMerge><feMergeNode in="blur"/><feMergeNode in="SourceGraphic"/></feMerge>
    </filter>
  </defs>
  <rect width="1280" height="320" fill="url(#bg)"/>
  <g opacity="0.04" stroke="#00ffe0" stroke-width="0.5">
    <line x1="0" y1="80" x2="1280" y2="80"/>
    <line x1="0" y1="160" x2="1280" y2="160"/>
    <line x1="0" y1="240" x2="1280" y2="240"/>
    <line x1="320" y1="0" x2="320" y2="320"/>
    <line x1="640" y1="0" x2="640" y2="320"/>
    <line x1="960" y1="0" x2="960" y2="320"/>
  </g>
  <g opacity="0.18">
    <rect x="60" y="200" width="18" height="80" fill="#00ffe0" rx="1"/>
    <rect x="84" y="170" width="18" height="110" fill="#00ffe0" rx="1"/>
    <rect x="108" y="220" width="18" height="60" fill="#ff4c4c" rx="1"/>
    <rect x="132" y="185" width="18" height="95" fill="#00ffe0" rx="1"/>
    <rect x="156" y="230" width="18" height="50" fill="#ff4c4c" rx="1"/>
    <rect x="180" y="195" width="18" height="85" fill="#00ffe0" rx="1"/>
    <rect x="204" y="210" width="18" height="70" fill="#ff4c4c" rx="1"/>
  </g>
  <g opacity="0.18">
    <rect x="1020" y="190" width="18" height="90" fill="#ff4c4c" rx="1"/>
    <rect x="1044" y="175" width="18" height="105" fill="#00ffe0" rx="1"/>
    <rect x="1068" y="215" width="18" height="65" fill="#ff4c4c" rx="1"/>
    <rect x="1092" y="200" width="18" height="80" fill="#00ffe0" rx="1"/>
    <rect x="1116" y="225" width="18" height="55" fill="#ff4c4c" rx="1"/>
    <rect x="1140" y="185" width="18" height="95" fill="#00ffe0" rx="1"/>
    <rect x="1164" y="205" width="18" height="75" fill="#ff4c4c" rx="1"/>
    <rect x="1188" y="195" width="18" height="85" fill="#00ffe0" rx="1"/>
  </g>
  <line x1="40" y1="280" x2="1240" y2="280" stroke="url(#lineGrad)" stroke-width="1" opacity="0.3"/>
  <line x1="380" y1="118" x2="900" y2="118" stroke="url(#lineGrad)" stroke-width="1.5" filter="url(#glow)"/>
  <line x1="440" y1="210" x2="840" y2="210" stroke="url(#accentLine)" stroke-width="1"/>
  <rect x="60" y="38" width="72" height="22" rx="11" fill="#00ffe0" opacity="0.08"/>
  <text x="96" y="53" font-family="monospace" font-size="10" fill="#00ffe0" opacity="0.7" text-anchor="middle" letter-spacing="1">MUSIC</text>
  <rect x="144" y="38" width="100" height="22" rx="11" fill="#00ffe0" opacity="0.08"/>
  <text x="194" y="53" font-family="monospace" font-size="10" fill="#00ffe0" opacity="0.7" text-anchor="middle" letter-spacing="1">STREAMING</text>
  <rect x="256" y="38" width="108" height="22" rx="11" fill="#00ffe0" opacity="0.08"/>
  <text x="310" y="53" font-family="monospace" font-size="10" fill="#00ffe0" opacity="0.7" text-anchor="middle" letter-spacing="1">HEALTHCARE</text>
  <text x="640" y="158" font-family="Georgia, serif" font-size="64" font-weight="700" fill="#ffffff" text-anchor="middle" letter-spacing="-1" filter="url(#subtleGlow)">THE MEASUREMENT GAP</text>
  <text x="640" y="192" font-family="monospace" font-size="13" fill="#94a3b8" text-anchor="middle" letter-spacing="3">A CROSS-INDUSTRY DIVERGENCE SCORE AUDIT</text>
  <text x="68" y="195" font-family="monospace" font-size="9" fill="#00ffe0" opacity="0.4">+1.38</text>
  <text x="108" y="218" font-family="monospace" font-size="9" fill="#ff4c4c" opacity="0.4">+1.48</text>
  <text x="1068" y="213" font-family="monospace" font-size="9" fill="#ff4c4c" opacity="0.4">-2.35</text>
  <text x="1140" y="183" font-family="monospace" font-size="9" fill="#00ffe0" opacity="0.4">-3.11</text>
  <text x="640" y="302" font-family="monospace" font-size="10" fill="#334155" text-anchor="middle" letter-spacing="2">AUDIENCE INTELLIGENCE · PORTFOLIO PROJECT · LYLESMOM</text>
</svg>